<?xml version="1.0" encoding="utf-8"?>
<!-- Generator: Adobe Illustrator 22.1.0, SVG Export Plug-In . SVG Version: 6.00 Build 0)  -->
<svg version="1.1" id="レイヤー_1" xmlns="http://www.w3.org/2000/svg" xmlns:xlink="http://www.w3.org/1999/xlink" x="0px"
	 y="0px" viewBox="0 0 1024 1024" style="enable-background:new 0 0 1024 1024;" xml:space="preserve">
<style type="text/css">
	.st0{fill:#83CEE9;}
	.st1{fill:#00B4DC;}
	.st2{fill:#0084C0;}
</style>
<path class="st0" d="M1024,767.5L1024,767.5c0-141.4-114.5-256-255.8-256H511.7l0-255.5c0-141.4-114.5-256-255.8-256l0,0
	C114.5,0,0,114.6,0,256v768h255.8c5.4,0,10.7-0.2,16-0.5h496.3C909.5,1023.5,1024,908.9,1024,767.5z"/>
<path class="st1" d="M1023.5,116.2v-1c0-63.4-51.3-114.7-114.6-114.7H793.3V0H563.2l0,345.7c0,63.4,51.3,114.7,114.6,114.7h1
	c63.3,0,114.6-51.4,114.6-114.7V231h115.6C972.2,231,1023.5,179.6,1023.5,116.2z"/>
<path class="st2" d="M816.3,408.1v0.4c0,28.5,23.1,51.6,51.6,51.6h52v0.2h103.6V304.8c0-28.5-23.1-51.6-51.6-51.6h-0.4
	c-28.5,0-51.6,23.1-51.6,51.6v51.6h-52C839.4,356.5,816.3,379.6,816.3,408.1z"/>
</svg>
